# xmcd
#
# Track frame offsets: 
#        150
#        44139
#        51537
#        57236
#        62178
#        68881
#        82395
#        125641
#        149300
#        188582
#        205733
#        237346
#        264419
#        282446
#        306601
#
# Disc length: 4726 seconds
#
# Revision: 0
# Processed by: cddbd v1.5.2PL0 Copyright (c) Steve Scherf et al.
# Submitted via: ExactAudioCopy v1.0b1
#
DISCID=fb12740f
DTITLE=Sergio Fiorentino - The Contemplative Liszt,CD4
DYEAR=2012
DGENRE=Classical
TTITLE0=Mephisto Waltz No.1
TTITLE1=Funf ungarische Volkslieder-Lassan
TTITLE2=Allegretto
TTITLE3=Lassan
TTITLE4=Lebhaft,humoristisch
TTITLE5=Lento
TTITLE6=Sposalizio
TTITLE7=Piano Concerto No.1-Allegro maestoso
TTITLE8=Quasi adagio-allegretto vivace
TTITLE9=Allegro marziale animato
TTITLE10=Piano Concerto No.2-Adagio sostenuto assai
TTITLE11=Allegro moderato
TTITLE12=Marziale un poco meno allegro
TTITLE13=Un poco piu mosso
TTITLE14=Weber:Polonaise brillante
EXTD=
EXTT0=
EXTT1=
EXTT2=
EXTT3=
EXTT4=
EXTT5=
EXTT6=
EXTT7=
EXTT8=
EXTT9=
EXTT10=
EXTT11=
EXTT12=
EXTT13=
EXTT14=
PLAYORDER=
